<?xml version="1.0" encoding="utf-8"?>
<!-- Generator: Adobe Illustrator 17.0.0, SVG Export Plug-In . SVG Version: 6.00 Build 0)  -->
<!DOCTYPE svg PUBLIC "-//W3C//DTD SVG 1.1//EN" "http://www.w3.org/Graphics/SVG/1.1/DTD/svg11.dtd">
<svg version="1.1" id="Layer_1" xmlns="http://www.w3.org/2000/svg" xmlns:xlink="http://www.w3.org/1999/xlink" x="0px" y="0px"
	 width="92.173px" height="158.863px" viewBox="0 0 92.173 158.863" enable-background="new 0 0 92.173 158.863"
	 xml:space="preserve">
<polygon fill="#FFFFFF" stroke="#FFFFFF" stroke-miterlimit="10" points="17.5,31.113 33.75,76.863 65,63.613 45.25,20.613 "/>
<path fill="#FFFFFF" stroke="#FFFFFF" stroke-miterlimit="10" d="M17.5,31.113c0,0-17-0.75-17-9s34.25-26.25,50.25-20.5
	c0,0,7.25,6.25-5.5,19L17.5,31.113z"/>
<path fill="#FFFFFF" stroke="#FFFFFF" stroke-miterlimit="10" d="M33.75,76.863"/>
<path fill="#FFFFFF" stroke="#FFFFFF" stroke-miterlimit="10" d="M33.75,76.863c0,0-17.614,19-7.099,30s65.682-14.333,65.015-24.667
	C91,71.863,82.333,64.529,65,63.613L33.75,76.863z"/>
<polygon fill="#FFFFFF" stroke="#FFFFFF" stroke-miterlimit="10" points="66.705,101.078 81.833,139.363 73.333,142.529 
	58.669,104.37 "/>
<polygon fill="#FFFFFF" stroke="#FFFFFF" stroke-miterlimit="10" points="81.833,139.363 83.5,157.029 73.333,142.529 "/>
</svg>
